<?xml version="1.0" encoding="UTF-8"?>
<svg version="1.1" xmlns="http://www.w3.org/2000/svg" width="1000" height="1000">
<path d="M0 0 C330 0 660 0 1000 0 C1000 330 1000 660 1000 1000 C670 1000 340 1000 0 1000 C0 670 0 340 0 0 Z " fill="#F0EEE6" transform="translate(0,0)"/>
<path d="M0 0 C49.5 0 99 0 150 0 C150.33 55.44 150.66 110.88 151 168 C181.03 168.33 211.06 168.66 242 169 C242 209.92 242 250.84 242 293 C211.97 293 181.94 293 151 293 C151.06161892 316.42589377 151.06161892 316.42589377 151.16015625 339.8515625 C151.20856806 349.41503637 151.25306168 358.97840608 151.27099609 368.54199219 C151.28408097 375.50949564 151.31121766 382.47678519 151.35461307 389.44416809 C151.37707582 393.12686311 151.39291995 396.80929584 151.39188385 400.49206543 C151.01675233 430.41747147 151.01675233 430.41747147 163.58984375 456.96484375 C170.01851131 463.15149088 177.9506728 464.16810926 186.5625 464.375 C192.59844673 464.24140762 197.52617864 463.52637909 203 461 C203.68449219 460.69835937 204.36898438 460.39671875 205.07421875 460.0859375 C208.58815151 458.43940901 211.69647232 456.56252369 214.8125 454.25 C218 452 218 452 221 452 C242.46152126 495.85251377 242.46152126 495.85251377 249.15600586 509.93896484 C251.61034747 515.10244097 254.08959317 520.25313337 256.58984375 525.39453125 C257.22342824 526.6993623 257.85697307 528.00421261 258.49047852 529.30908203 C259.4156122 531.21448017 260.34170481 533.11936854 261.271698 535.0223999 C265.12672327 542.91149684 268.72200609 550.85335774 272 559 C247.15790494 575.2279364 216.10486652 583.73687626 187 588 C185.92314941 588.16081055 184.84629883 588.32162109 183.73681641 588.48730469 C136.60243542 595.22972462 87.11371578 592.35397821 47.5625 563.125 C19.26692144 541.36587082 5.631719 510.73631794 0.71085453 475.95636177 C-0.25563029 467.5886523 -0.13288636 459.20908563 -0.11352539 450.80029297 C-0.11324291 449.07470196 -0.11340245 447.34911083 -0.1139679 445.6235199 C-0.11425348 440.96515907 -0.10839552 436.30682426 -0.10139394 431.64846945 C-0.09512047 426.77045926 -0.09455345 421.89244841 -0.09336853 417.01443481 C-0.09026696 407.78890264 -0.08206945 398.56338239 -0.07201904 389.33785546 C-0.06082137 378.82996537 -0.05533826 368.32207471 -0.05032361 357.81418014 C-0.03988581 336.2094453 -0.02155498 314.6047268 0 293 C-23.1 293 -46.2 293 -70 293 C-70 252.08 -70 211.16 -70 169 C-46.9 169 -23.8 169 0 169 C0 113.23 0 57.46 0 0 Z " fill="#000000" transform="translate(395,228)"/>
<path d="M0 0 C4.8069704 2.81858605 8.23834109 7.26939796 11.6875 11.5625 C12.0278125 11.04300781 12.368125 10.52351563 12.71875 9.98828125 C16.25776546 4.89624038 19.68272028 0.62426772 25.6875 -1.4375 C32.69341771 -2.36234661 39.81041274 -2.53318819 46.0078125 1.23046875 C51.88641733 5.89233909 55.11267513 10.7325691 56.0078125 18.25390625 C56.4722366 26.15921205 54.76201273 31.45921361 49.6875 37.5625 C43.66401021 42.47963453 38.12339041 44.03336253 30.47265625 43.87890625 C23.7605291 43.11637848 19.0164917 39.63360456 14.6875 34.5625 C13.63462186 32.92872358 12.6147999 31.27068403 11.6875 29.5625 C11.3471875 30.08199219 11.006875 30.60148437 10.65625 31.13671875 C6.39616277 37.26625915 1.82034989 41.18488337 -5.3125 43.5625 C-12.09909503 44.34128959 -17.46790457 43.86948493 -23.3046875 40.1875 C-27.87216 36.49086856 -31.87294964 31.32070145 -33.3125 25.5625 C-33.98090143 17.40800261 -32.23544277 11.58581238 -27 5.25 C-19.9177904 -2.21344656 -9.69882998 -4.18682165 0 0 Z " fill="#EEECE4" transform="translate(577.3125,474.4375)"/>
</svg>
